<?xml version="1.0" encoding="UTF-8" standalone="no"?>
<!DOCTYPE svg PUBLIC "-//W3C//DTD SVG 1.1//EN"
 "http://www.w3.org/Graphics/SVG/1.1/DTD/svg11.dtd">
<!-- Generated by graphviz version 2.40.1 (20161225.0304)
 -->
<!-- Title: G Pages: 1 -->
<svg width="588pt" height="1102pt"
 viewBox="0.00 0.00 588.48 1102.00" xmlns="http://www.w3.org/2000/svg" xmlns:xlink="http://www.w3.org/1999/xlink">
<g id="graph0" class="graph" transform="scale(1 1) rotate(0) translate(4 1098)">
<title>G</title>
<polygon fill="#ffffff" stroke="transparent" points="-4,4 -4,-1098 584.481,-1098 584.481,4 -4,4"/>
<g id="clust1" class="cluster">
<title>cluster_Global</title>
<path fill="none" stroke="#c0c0c0" d="M20,-8C20,-8 560.481,-8 560.481,-8 566.481,-8 572.481,-14 572.481,-20 572.481,-20 572.481,-1074 572.481,-1074 572.481,-1080 566.481,-1086 560.481,-1086 560.481,-1086 20,-1086 20,-1086 14,-1086 8,-1080 8,-1074 8,-1074 8,-20 8,-20 8,-14 14,-8 20,-8"/>
<text text-anchor="middle" x="290.2405" y="-1073.2" font-family="Times,serif" font-size="11.00" fill="#c0c0c0">Global</text>
</g>
<g id="clust2" class="cluster">
<title>cluster_\PHPML</title>
<path fill="none" stroke="#c0c0c0" d="M201.2376,-16C201.2376,-16 552.481,-16 552.481,-16 558.481,-16 564.481,-22 564.481,-28 564.481,-28 564.481,-802 564.481,-802 564.481,-808 558.481,-814 552.481,-814 552.481,-814 201.2376,-814 201.2376,-814 195.2376,-814 189.2376,-808 189.2376,-802 189.2376,-802 189.2376,-28 189.2376,-28 189.2376,-22 195.2376,-16 201.2376,-16"/>
<text text-anchor="middle" x="376.8593" y="-801.2" font-family="Times,serif" font-size="11.00" fill="#c0c0c0">PHPML</text>
</g>
<g id="clust3" class="cluster">
<title>cluster_\PHPML\Graphics</title>
<path fill="none" stroke="#c0c0c0" d="M415.481,-320C415.481,-320 523.481,-320 523.481,-320 529.481,-320 535.481,-326 535.481,-332 535.481,-332 535.481,-586 535.481,-586 535.481,-592 529.481,-598 523.481,-598 523.481,-598 415.481,-598 415.481,-598 409.481,-598 403.481,-592 403.481,-586 403.481,-586 403.481,-332 403.481,-332 403.481,-326 409.481,-320 415.481,-320"/>
<text text-anchor="middle" x="469.481" y="-585.2" font-family="Times,serif" font-size="11.00" fill="#c0c0c0">Graphics</text>
</g>
<g id="clust4" class="cluster">
<title>cluster_\PHPML\Graphics\Input</title>
<path fill="none" stroke="#c0c0c0" d="M437.981,-444C437.981,-444 500.981,-444 500.981,-444 506.981,-444 512.981,-450 512.981,-456 512.981,-456 512.981,-558 512.981,-558 512.981,-564 506.981,-570 500.981,-570 500.981,-570 437.981,-570 437.981,-570 431.981,-570 425.981,-564 425.981,-558 425.981,-558 425.981,-456 425.981,-456 425.981,-450 431.981,-444 437.981,-444"/>
<text text-anchor="middle" x="469.481" y="-557.2" font-family="Times,serif" font-size="11.00" fill="#c0c0c0">Input</text>
</g>
<g id="clust5" class="cluster">
<title>cluster_\PHPML\Graphics\Drawable</title>
<path fill="none" stroke="#c0c0c0" d="M423.481,-328C423.481,-328 515.481,-328 515.481,-328 521.481,-328 527.481,-334 527.481,-340 527.481,-340 527.481,-424 527.481,-424 527.481,-430 521.481,-436 515.481,-436 515.481,-436 423.481,-436 423.481,-436 417.481,-436 411.481,-430 411.481,-424 411.481,-424 411.481,-340 411.481,-340 411.481,-334 417.481,-328 423.481,-328"/>
<text text-anchor="middle" x="469.481" y="-423.2" font-family="Times,serif" font-size="11.00" fill="#c0c0c0">Drawable</text>
</g>
<g id="clust6" class="cluster">
<title>cluster_\PHPML\Graphics\Drawable\Shape</title>
<path fill="none" stroke="#c0c0c0" d="M431.481,-336C431.481,-336 507.481,-336 507.481,-336 513.481,-336 519.481,-342 519.481,-348 519.481,-348 519.481,-396 519.481,-396 519.481,-402 513.481,-408 507.481,-408 507.481,-408 431.481,-408 431.481,-408 425.481,-408 419.481,-402 419.481,-396 419.481,-396 419.481,-348 419.481,-348 419.481,-342 425.481,-336 431.481,-336"/>
<text text-anchor="middle" x="469.481" y="-395.2" font-family="Times,serif" font-size="11.00" fill="#c0c0c0">Shape</text>
</g>
<g id="clust7" class="cluster">
<title>cluster_\PHPML\Enum</title>
<path fill="none" stroke="#c0c0c0" d="M209.2376,-24C209.2376,-24 510.981,-24 510.981,-24 516.981,-24 522.981,-30 522.981,-36 522.981,-36 522.981,-300 522.981,-300 522.981,-306 516.981,-312 510.981,-312 510.981,-312 209.2376,-312 209.2376,-312 203.2376,-312 197.2376,-306 197.2376,-300 197.2376,-300 197.2376,-36 197.2376,-36 197.2376,-30 203.2376,-24 209.2376,-24"/>
<text text-anchor="middle" x="360.1093" y="-299.2" font-family="Times,serif" font-size="11.00" fill="#c0c0c0">Enum</text>
</g>
<g id="clust8" class="cluster">
<title>cluster_\PHPML\Exception</title>
<path fill="none" stroke="#c0c0c0" d="M394.481,-606C394.481,-606 544.481,-606 544.481,-606 550.481,-606 556.481,-612 556.481,-618 556.481,-618 556.481,-774 556.481,-774 556.481,-780 550.481,-786 544.481,-786 544.481,-786 394.481,-786 394.481,-786 388.481,-786 382.481,-780 382.481,-774 382.481,-774 382.481,-618 382.481,-618 382.481,-612 388.481,-606 394.481,-606"/>
<text text-anchor="middle" x="469.481" y="-773.2" font-family="Times,serif" font-size="11.00" fill="#c0c0c0">Exception</text>
</g>
<g id="clust9" class="cluster">
<title>cluster_Global\FFI</title>
<path fill="none" stroke="#c0c0c0" d="M201.5917,-986C201.5917,-986 285.8835,-986 285.8835,-986 291.8835,-986 297.8835,-992 297.8835,-998 297.8835,-998 297.8835,-1046 297.8835,-1046 297.8835,-1052 291.8835,-1058 285.8835,-1058 285.8835,-1058 201.5917,-1058 201.5917,-1058 195.5917,-1058 189.5917,-1052 189.5917,-1046 189.5917,-1046 189.5917,-998 189.5917,-998 189.5917,-992 195.5917,-986 201.5917,-986"/>
<text text-anchor="middle" x="243.7376" y="-1045.2" font-family="Times,serif" font-size="11.00" fill="#c0c0c0">FFI</text>
</g>
<g id="clust10" class="cluster">
<title>cluster_Global\MyCLabs</title>
<path fill="none" stroke="#c0c0c0" d="M28,-532C28,-532 100.9942,-532 100.9942,-532 106.9942,-532 112.9942,-538 112.9942,-544 112.9942,-544 112.9942,-628 112.9942,-628 112.9942,-634 106.9942,-640 100.9942,-640 100.9942,-640 28,-640 28,-640 22,-640 16,-634 16,-628 16,-628 16,-544 16,-544 16,-538 22,-532 28,-532"/>
<text text-anchor="middle" x="64.4971" y="-627.2" font-family="Times,serif" font-size="11.00" fill="#c0c0c0">MyCLabs</text>
</g>
<g id="clust11" class="cluster">
<title>cluster_Global\MyCLabs\Enum</title>
<path fill="none" stroke="#c0c0c0" d="M36,-540C36,-540 92.9942,-540 92.9942,-540 98.9942,-540 104.9942,-546 104.9942,-552 104.9942,-552 104.9942,-600 104.9942,-600 104.9942,-606 98.9942,-612 92.9942,-612 92.9942,-612 36,-612 36,-612 30,-612 24,-606 24,-600 24,-600 24,-552 24,-552 24,-546 30,-540 36,-540"/>
<text text-anchor="middle" x="64.4971" y="-599.2" font-family="Times,serif" font-size="11.00" fill="#c0c0c0">Enum</text>
</g>
<g id="clust12" class="cluster">
<title>cluster_Global\PHPML</title>
<path fill="none" stroke="#c0c0c0" d="M156.9942,-822C156.9942,-822 330.481,-822 330.481,-822 336.481,-822 342.481,-828 342.481,-834 342.481,-834 342.481,-954 342.481,-954 342.481,-960 336.481,-966 330.481,-966 330.481,-966 156.9942,-966 156.9942,-966 150.9942,-966 144.9942,-960 144.9942,-954 144.9942,-954 144.9942,-834 144.9942,-834 144.9942,-828 150.9942,-822 156.9942,-822"/>
<text text-anchor="middle" x="243.7376" y="-953.2" font-family="Times,serif" font-size="11.00" fill="#c0c0c0">PHPML</text>
</g>
<g id="clust13" class="cluster">
<title>cluster_Global\PHPML\Graphics</title>
<path fill="none" stroke="#c0c0c0" d="M164.9942,-830C164.9942,-830 322.481,-830 322.481,-830 328.481,-830 334.481,-836 334.481,-842 334.481,-842 334.481,-926 334.481,-926 334.481,-932 328.481,-938 322.481,-938 322.481,-938 164.9942,-938 164.9942,-938 158.9942,-938 152.9942,-932 152.9942,-926 152.9942,-926 152.9942,-842 152.9942,-842 152.9942,-836 158.9942,-830 164.9942,-830"/>
<text text-anchor="middle" x="243.7376" y="-925.2" font-family="Times,serif" font-size="11.00" fill="#c0c0c0">Graphics</text>
</g>
<g id="clust14" class="cluster">
<title>cluster_Global\PHPML\Graphics\Drawable</title>
<path fill="none" stroke="#c0c0c0" d="M172.9942,-838C172.9942,-838 314.481,-838 314.481,-838 320.481,-838 326.481,-844 326.481,-850 326.481,-850 326.481,-898 326.481,-898 326.481,-904 320.481,-910 314.481,-910 314.481,-910 172.9942,-910 172.9942,-910 166.9942,-910 160.9942,-904 160.9942,-898 160.9942,-898 160.9942,-850 160.9942,-850 160.9942,-844 166.9942,-838 172.9942,-838"/>
<text text-anchor="middle" x="243.7376" y="-897.2" font-family="Times,serif" font-size="11.00" fill="#c0c0c0">Drawable</text>
</g>
<!-- \\PHPML\\Graphics\\Input\\Mouse -->
<g id="node1" class="node">
<title>\\PHPML\\Graphics\\Input\\Mouse</title>
<polygon fill="none" stroke="#000000" points="496.481,-542 442.481,-542 442.481,-506 496.481,-506 496.481,-542"/>
<text text-anchor="middle" x="469.481" y="-521.2" font-family="Courier,monospace" font-size="11.00" fill="#000000">Mouse</text>
</g>
<!-- \\PHPML\\Graphics\\Input\\Keyboard -->
<g id="node2" class="node">
<title>\\PHPML\\Graphics\\Input\\Keyboard</title>
<polygon fill="none" stroke="#000000" points="504.981,-488 433.981,-488 433.981,-452 504.981,-452 504.981,-488"/>
<text text-anchor="middle" x="469.481" y="-467.2" font-family="Courier,monospace" font-size="11.00" fill="#000000">Keyboard</text>
</g>
<!-- \\PHPML\\Graphics\\Drawable\\Shape\\Shape -->
<g id="node3" class="node">
<title>\\PHPML\\Graphics\\Drawable\\Shape\\Shape</title>
<polygon fill="none" stroke="#000000" points="511.481,-380 427.481,-380 427.481,-344 511.481,-344 511.481,-380"/>
<text text-anchor="start" x="435.481" y="-365.2" font-family="Courier,monospace" font-size="11.00" fill="#000000">«abstract»</text>
<text text-anchor="start" x="452.481" y="-353.2" font-family="Courier,monospace" font-size="11.00" fill="#000000">Shape</text>
</g>
<!-- AbstractDrawable -->
<g id="node15" class="node">
<title>AbstractDrawable</title>
<ellipse fill="none" stroke="#000000" cx="243.7376" cy="-864" rx="74.9875" ry="18"/>
<text text-anchor="middle" x="243.7376" y="-860.3" font-family="Times,serif" font-size="14.00" fill="#c0c0c0">AbstractDrawable</text>
</g>
<!-- \\PHPML\\Graphics\\Drawable\\Shape\\Shape&#45;&gt;AbstractDrawable -->
<g id="edge7" class="edge">
<title>\\PHPML\\Graphics\\Drawable\\Shape\\Shape&#45;&gt;AbstractDrawable</title>
<path fill="none" stroke="#000000" d="M442.4529,-380.2746C423.2671,-394.5144 398.2206,-415.8745 382.481,-440 295.9354,-572.6555 259.1237,-763.9418 247.8156,-835.5336"/>
<polygon fill="none" stroke="#000000" points="244.33,-835.1734 246.2724,-845.5886 251.249,-836.2353 244.33,-835.1734"/>
</g>
<!-- \\PHPML\\Enum\\EventType -->
<g id="node4" class="node">
<title>\\PHPML\\Enum\\EventType</title>
<polygon fill="none" stroke="#000000" points="507.981,-230 430.981,-230 430.981,-194 507.981,-194 507.981,-230"/>
<text text-anchor="middle" x="469.481" y="-209.2" font-family="Courier,monospace" font-size="11.00" fill="#000000">EventType</text>
</g>
<!-- \\PHPML\\Enum\\CDataEnum -->
<g id="node5" class="node">
<title>\\PHPML\\Enum\\CDataEnum</title>
<polygon fill="none" stroke="#000000" points="282.2376,-176 205.2376,-176 205.2376,-140 282.2376,-140 282.2376,-176"/>
<text text-anchor="middle" x="243.7376" y="-155.2" font-family="Courier,monospace" font-size="11.00" fill="#000000">CDataEnum</text>
</g>
<!-- \\PHPML\\Enum\\EventType&#45;&gt;\\PHPML\\Enum\\CDataEnum -->
<g id="edge1" class="edge">
<title>\\PHPML\\Enum\\EventType&#45;&gt;\\PHPML\\Enum\\CDataEnum</title>
<path fill="none" stroke="#000000" d="M430.9308,-202.7784C392.6564,-193.6228 333.8572,-179.5575 292.3893,-169.638"/>
<polygon fill="none" stroke="#000000" points="293.0466,-166.1965 282.5067,-167.2739 291.418,-173.0044 293.0466,-166.1965"/>
</g>
<!-- Enum -->
<g id="node14" class="node">
<title>Enum</title>
<ellipse fill="none" stroke="#000000" cx="64.4971" cy="-566" rx="32.4942" ry="18"/>
<text text-anchor="middle" x="64.4971" y="-562.3" font-family="Times,serif" font-size="14.00" fill="#c0c0c0">Enum</text>
</g>
<!-- \\PHPML\\Enum\\CDataEnum&#45;&gt;Enum -->
<g id="edge3" class="edge">
<title>\\PHPML\\Enum\\CDataEnum&#45;&gt;Enum</title>
<path fill="none" stroke="#000000" d="M235.8046,-176.0577C207.4048,-240.7033 110.6823,-460.87 76.5461,-538.5732"/>
<polygon fill="none" stroke="#000000" points="73.1563,-537.5876 72.3385,-548.1508 79.5651,-540.4031 73.1563,-537.5876"/>
</g>
<!-- \\PHPML\\Enum\\KeyCode -->
<g id="node6" class="node">
<title>\\PHPML\\Enum\\KeyCode</title>
<polygon fill="none" stroke="#000000" points="501.481,-176 437.481,-176 437.481,-140 501.481,-140 501.481,-176"/>
<text text-anchor="middle" x="469.481" y="-155.2" font-family="Courier,monospace" font-size="11.00" fill="#000000">KeyCode</text>
</g>
<!-- \\PHPML\\Enum\\KeyCode&#45;&gt;\\PHPML\\Enum\\CDataEnum -->
<g id="edge5" class="edge">
<title>\\PHPML\\Enum\\KeyCode&#45;&gt;\\PHPML\\Enum\\CDataEnum</title>
<path fill="none" stroke="#000000" d="M437.1374,-158C399.3274,-158 336.3617,-158 292.5888,-158"/>
<polygon fill="none" stroke="#000000" points="292.4541,-154.5001 282.454,-158 292.454,-161.5001 292.4541,-154.5001"/>
</g>
<!-- \\PHPML\\Enum\\CSFMLType -->
<g id="node7" class="node">
<title>\\PHPML\\Enum\\CSFMLType</title>
<polygon fill="none" stroke="#000000" points="507.981,-284 430.981,-284 430.981,-248 507.981,-248 507.981,-284"/>
<text text-anchor="middle" x="469.481" y="-263.2" font-family="Courier,monospace" font-size="11.00" fill="#000000">CSFMLType</text>
</g>
<!-- \\PHPML\\Enum\\CSFMLType&#45;&gt;Enum -->
<g id="edge8" class="edge">
<title>\\PHPML\\Enum\\CSFMLType&#45;&gt;Enum</title>
<path fill="none" stroke="#000000" d="M432.8532,-284.0482C414.4137,-295.1842 393.6527,-311.3154 382.481,-332 320.8746,-446.0648 437.2398,-825.5303 342.481,-914 278.3244,-973.8985 213.6968,-968.6248 144.9942,-914 94.6822,-873.9974 73.0679,-670.5807 66.6656,-594.6419"/>
<polygon fill="none" stroke="#000000" points="70.1314,-594.0796 65.8297,-584.3974 63.1546,-594.6489 70.1314,-594.0796"/>
</g>
<!-- \\PHPML\\Enum\\TextStyle -->
<g id="node8" class="node">
<title>\\PHPML\\Enum\\TextStyle</title>
<polygon fill="none" stroke="#000000" points="507.981,-122 430.981,-122 430.981,-86 507.981,-86 507.981,-122"/>
<text text-anchor="middle" x="469.481" y="-101.2" font-family="Courier,monospace" font-size="11.00" fill="#000000">TextStyle</text>
</g>
<!-- \\PHPML\\Enum\\TextStyle&#45;&gt;\\PHPML\\Enum\\CDataEnum -->
<g id="edge9" class="edge">
<title>\\PHPML\\Enum\\TextStyle&#45;&gt;\\PHPML\\Enum\\CDataEnum</title>
<path fill="none" stroke="#000000" d="M430.9308,-113.2216C392.6564,-122.3772 333.8572,-136.4425 292.3893,-146.362"/>
<polygon fill="none" stroke="#000000" points="291.418,-142.9956 282.5067,-148.7261 293.0466,-149.8035 291.418,-142.9956"/>
</g>
<!-- \\PHPML\\Enum\\MouseButton -->
<g id="node9" class="node">
<title>\\PHPML\\Enum\\MouseButton</title>
<polygon fill="none" stroke="#000000" points="514.981,-68 423.981,-68 423.981,-32 514.981,-32 514.981,-68"/>
<text text-anchor="middle" x="469.481" y="-47.2" font-family="Courier,monospace" font-size="11.00" fill="#000000">MouseButton</text>
</g>
<!-- \\PHPML\\Enum\\MouseButton&#45;&gt;\\PHPML\\Enum\\CDataEnum -->
<g id="edge10" class="edge">
<title>\\PHPML\\Enum\\MouseButton&#45;&gt;\\PHPML\\Enum\\CDataEnum</title>
<path fill="none" stroke="#000000" d="M423.6114,-62.1015C410.1283,-66.226 395.508,-71.2655 382.481,-77 345.625,-93.2241 306.2118,-116.9111 278.8479,-134.4832"/>
<polygon fill="none" stroke="#000000" points="276.8926,-131.5797 270.4055,-139.9564 280.7004,-137.4534 276.8926,-131.5797"/>
</g>
<!-- \\PHPML\\Exception\\CDataException -->
<g id="node10" class="node">
<title>\\PHPML\\Exception\\CDataException</title>
<polygon fill="none" stroke="#000000" points="524.981,-704 413.981,-704 413.981,-668 524.981,-668 524.981,-704"/>
<text text-anchor="middle" x="469.481" y="-683.2" font-family="Courier,monospace" font-size="11.00" fill="#000000">CDataException</text>
</g>
<!-- Exception -->
<g id="node13" class="node">
<title>Exception</title>
<ellipse fill="none" stroke="#000000" cx="243.7376" cy="-1012" rx="46.2923" ry="18"/>
<text text-anchor="middle" x="243.7376" y="-1008.3" font-family="Times,serif" font-size="14.00" fill="#c0c0c0">Exception</text>
</g>
<!-- \\PHPML\\Exception\\CDataException&#45;&gt;Exception -->
<g id="edge2" class="edge">
<title>\\PHPML\\Exception\\CDataException&#45;&gt;Exception</title>
<path fill="none" stroke="#000000" d="M413.8923,-693.277C402.0181,-697.319 390.6181,-703.5195 382.481,-713 304.3313,-804.052 420.0613,-888.4625 342.481,-980 331.4814,-992.9784 315.166,-1000.7365 298.9513,-1005.3594"/>
<polygon fill="none" stroke="#000000" points="297.7785,-1002.0443 288.9168,-1007.8513 299.4656,-1008.8379 297.7785,-1002.0443"/>
</g>
<!-- \\PHPML\\Exception\\RenderWindowException -->
<g id="node11" class="node">
<title>\\PHPML\\Exception\\RenderWindowException</title>
<polygon fill="none" stroke="#000000" points="548.481,-650 390.481,-650 390.481,-614 548.481,-614 548.481,-650"/>
<text text-anchor="middle" x="469.481" y="-629.2" font-family="Courier,monospace" font-size="11.00" fill="#000000">RenderWindowException</text>
</g>
<!-- \\PHPML\\Exception\\RenderWindowException&#45;&gt;Exception -->
<g id="edge4" class="edge">
<title>\\PHPML\\Exception\\RenderWindowException&#45;&gt;Exception</title>
<path fill="none" stroke="#000000" d="M392.1392,-650.0214C388.5845,-652.6286 385.3232,-655.6044 382.481,-659 290.2005,-769.2458 434.0722,-869.1809 342.481,-980 331.5952,-993.171 315.2269,-1000.9752 298.9307,-1005.5814"/>
<polygon fill="none" stroke="#000000" points="297.7215,-1002.2741 288.843,-1008.0554 299.3889,-1009.0726 297.7215,-1002.2741"/>
</g>
<!-- \\PHPML\\Exception\\FFILoadingException -->
<g id="node12" class="node">
<title>\\PHPML\\Exception\\FFILoadingException</title>
<polygon fill="none" stroke="#000000" points="541.981,-758 396.981,-758 396.981,-722 541.981,-722 541.981,-758"/>
<text text-anchor="middle" x="469.481" y="-737.2" font-family="Courier,monospace" font-size="11.00" fill="#000000">FFILoadingException</text>
</g>
<!-- \\PHPML\\Exception\\FFILoadingException&#45;&gt;Exception -->
<g id="edge6" class="edge">
<title>\\PHPML\\Exception\\FFILoadingException&#45;&gt;Exception</title>
<path fill="none" stroke="#000000" d="M465.0037,-758.0272C453.0397,-802.4671 416.1116,-918.1401 342.481,-980 329.5694,-990.8475 312.9033,-998.0404 296.9526,-1002.8011"/>
<polygon fill="none" stroke="#000000" points="295.8868,-999.4637 287.1535,-1005.4619 297.7212,-1006.2191 295.8868,-999.4637"/>
</g>
</g>
</svg>
