<?xml version="1.0" encoding="UTF-8" standalone="no"?>
<!DOCTYPE svg PUBLIC "-//W3C//DTD SVG 1.1//EN"
 "http://www.w3.org/Graphics/SVG/1.1/DTD/svg11.dtd">
<!-- Generated by graphviz version 2.40.1 (20161225.0304)
 -->
<!-- Title: G Pages: 1 -->
<svg width="556pt" height="948pt"
 viewBox="0.00 0.00 556.48 948.00" xmlns="http://www.w3.org/2000/svg" xmlns:xlink="http://www.w3.org/1999/xlink">
<g id="graph0" class="graph" transform="scale(1 1) rotate(0) translate(4 944)">
<title>G</title>
<polygon fill="#ffffff" stroke="transparent" points="-4,4 -4,-944 552.481,-944 552.481,4 -4,4"/>
<g id="clust1" class="cluster">
<title>cluster_Global</title>
<path fill="none" stroke="#c0c0c0" d="M161.2376,-98C161.2376,-98 528.481,-98 528.481,-98 534.481,-98 540.481,-104 540.481,-110 540.481,-110 540.481,-920 540.481,-920 540.481,-926 534.481,-932 528.481,-932 528.481,-932 161.2376,-932 161.2376,-932 155.2376,-932 149.2376,-926 149.2376,-920 149.2376,-920 149.2376,-110 149.2376,-110 149.2376,-104 155.2376,-98 161.2376,-98"/>
<text text-anchor="middle" x="344.8593" y="-919.2" font-family="Times,serif" font-size="11.00" fill="#c0c0c0">Global</text>
</g>
<g id="clust2" class="cluster">
<title>cluster_\PHPML</title>
<path fill="none" stroke="#c0c0c0" d="M169.2376,-106C169.2376,-106 520.481,-106 520.481,-106 526.481,-106 532.481,-112 532.481,-118 532.481,-118 532.481,-892 532.481,-892 532.481,-898 526.481,-904 520.481,-904 520.481,-904 169.2376,-904 169.2376,-904 163.2376,-904 157.2376,-898 157.2376,-892 157.2376,-892 157.2376,-118 157.2376,-118 157.2376,-112 163.2376,-106 169.2376,-106"/>
<text text-anchor="middle" x="344.8593" y="-891.2" font-family="Times,serif" font-size="11.00" fill="#c0c0c0">PHPML</text>
</g>
<g id="clust3" class="cluster">
<title>cluster_\PHPML\Graphics</title>
<path fill="none" stroke="#c0c0c0" d="M383.481,-302C383.481,-302 491.481,-302 491.481,-302 497.481,-302 503.481,-308 503.481,-314 503.481,-314 503.481,-568 503.481,-568 503.481,-574 497.481,-580 491.481,-580 491.481,-580 383.481,-580 383.481,-580 377.481,-580 371.481,-574 371.481,-568 371.481,-568 371.481,-314 371.481,-314 371.481,-308 377.481,-302 383.481,-302"/>
<text text-anchor="middle" x="437.481" y="-567.2" font-family="Times,serif" font-size="11.00" fill="#c0c0c0">Graphics</text>
</g>
<g id="clust4" class="cluster">
<title>cluster_\PHPML\Graphics\Input</title>
<path fill="none" stroke="#c0c0c0" d="M405.981,-426C405.981,-426 468.981,-426 468.981,-426 474.981,-426 480.981,-432 480.981,-438 480.981,-438 480.981,-540 480.981,-540 480.981,-546 474.981,-552 468.981,-552 468.981,-552 405.981,-552 405.981,-552 399.981,-552 393.981,-546 393.981,-540 393.981,-540 393.981,-438 393.981,-438 393.981,-432 399.981,-426 405.981,-426"/>
<text text-anchor="middle" x="437.481" y="-539.2" font-family="Times,serif" font-size="11.00" fill="#c0c0c0">Input</text>
</g>
<g id="clust5" class="cluster">
<title>cluster_\PHPML\Graphics\Drawable</title>
<path fill="none" stroke="#c0c0c0" d="M391.481,-310C391.481,-310 483.481,-310 483.481,-310 489.481,-310 495.481,-316 495.481,-322 495.481,-322 495.481,-406 495.481,-406 495.481,-412 489.481,-418 483.481,-418 483.481,-418 391.481,-418 391.481,-418 385.481,-418 379.481,-412 379.481,-406 379.481,-406 379.481,-322 379.481,-322 379.481,-316 385.481,-310 391.481,-310"/>
<text text-anchor="middle" x="437.481" y="-405.2" font-family="Times,serif" font-size="11.00" fill="#c0c0c0">Drawable</text>
</g>
<g id="clust6" class="cluster">
<title>cluster_\PHPML\Graphics\Drawable\Shape</title>
<path fill="none" stroke="#c0c0c0" d="M399.481,-318C399.481,-318 475.481,-318 475.481,-318 481.481,-318 487.481,-324 487.481,-330 487.481,-330 487.481,-378 487.481,-378 487.481,-384 481.481,-390 475.481,-390 475.481,-390 399.481,-390 399.481,-390 393.481,-390 387.481,-384 387.481,-378 387.481,-378 387.481,-330 387.481,-330 387.481,-324 393.481,-318 399.481,-318"/>
<text text-anchor="middle" x="437.481" y="-377.2" font-family="Times,serif" font-size="11.00" fill="#c0c0c0">Shape</text>
</g>
<g id="clust7" class="cluster">
<title>cluster_\PHPML\Enum</title>
<path fill="none" stroke="#c0c0c0" d="M177.2376,-588C177.2376,-588 478.981,-588 478.981,-588 484.981,-588 490.981,-594 490.981,-600 490.981,-600 490.981,-864 490.981,-864 490.981,-870 484.981,-876 478.981,-876 478.981,-876 177.2376,-876 177.2376,-876 171.2376,-876 165.2376,-870 165.2376,-864 165.2376,-864 165.2376,-600 165.2376,-600 165.2376,-594 171.2376,-588 177.2376,-588"/>
<text text-anchor="middle" x="328.1093" y="-863.2" font-family="Times,serif" font-size="11.00" fill="#c0c0c0">Enum</text>
</g>
<g id="clust8" class="cluster">
<title>cluster_\PHPML\Exception</title>
<path fill="none" stroke="#c0c0c0" d="M362.481,-114C362.481,-114 512.481,-114 512.481,-114 518.481,-114 524.481,-120 524.481,-126 524.481,-126 524.481,-282 524.481,-282 524.481,-288 518.481,-294 512.481,-294 512.481,-294 362.481,-294 362.481,-294 356.481,-294 350.481,-288 350.481,-282 350.481,-282 350.481,-126 350.481,-126 350.481,-120 356.481,-114 362.481,-114"/>
<text text-anchor="middle" x="437.481" y="-281.2" font-family="Times,serif" font-size="11.00" fill="#c0c0c0">Exception</text>
</g>
<!-- \\PHPML\\Graphics\\Input\\Mouse -->
<g id="node1" class="node">
<title>\\PHPML\\Graphics\\Input\\Mouse</title>
<polygon fill="none" stroke="#000000" points="464.481,-524 410.481,-524 410.481,-488 464.481,-488 464.481,-524"/>
<text text-anchor="middle" x="437.481" y="-503.2" font-family="Courier,monospace" font-size="11.00" fill="#000000">Mouse</text>
</g>
<!-- \\PHPML\\Graphics\\Input\\Keyboard -->
<g id="node2" class="node">
<title>\\PHPML\\Graphics\\Input\\Keyboard</title>
<polygon fill="none" stroke="#000000" points="472.981,-470 401.981,-470 401.981,-434 472.981,-434 472.981,-470"/>
<text text-anchor="middle" x="437.481" y="-449.2" font-family="Courier,monospace" font-size="11.00" fill="#000000">Keyboard</text>
</g>
<!-- \\PHPML\\Graphics\\Drawable\\Shape\\Shape -->
<g id="node3" class="node">
<title>\\PHPML\\Graphics\\Drawable\\Shape\\Shape</title>
<polygon fill="none" stroke="#000000" points="479.481,-362 395.481,-362 395.481,-326 479.481,-326 479.481,-362"/>
<text text-anchor="start" x="403.481" y="-347.2" font-family="Courier,monospace" font-size="11.00" fill="#000000">«abstract»</text>
<text text-anchor="start" x="420.481" y="-335.2" font-family="Courier,monospace" font-size="11.00" fill="#000000">Shape</text>
</g>
<!-- AbstractDrawable -->
<g id="node15" class="node">
<title>AbstractDrawable</title>
<ellipse fill="none" stroke="#000000" cx="211.7376" cy="-72" rx="74.9875" ry="18"/>
<text text-anchor="middle" x="211.7376" y="-68.3" font-family="Times,serif" font-size="14.00" fill="#000000">AbstractDrawable</text>
</g>
<!-- \\PHPML\\Graphics\\Drawable\\Shape\\Shape&#45;&gt;AbstractDrawable -->
<g id="edge7" class="edge">
<title>\\PHPML\\Graphics\\Drawable\\Shape\\Shape&#45;&gt;AbstractDrawable</title>
<path fill="none" stroke="#000000" d="M395.1545,-327.2469C379.9085,-319.8355 363.3177,-310.0378 350.481,-298 287.5927,-239.0257 242.4708,-145.4035 222.7731,-99.3773"/>
<polygon fill="none" stroke="#000000" points="225.9527,-97.9092 218.8508,-90.0471 219.4997,-100.622 225.9527,-97.9092"/>
</g>
<!-- \\PHPML\\Enum\\EventType -->
<g id="node4" class="node">
<title>\\PHPML\\Enum\\EventType</title>
<polygon fill="none" stroke="#000000" points="475.981,-740 398.981,-740 398.981,-704 475.981,-704 475.981,-740"/>
<text text-anchor="middle" x="437.481" y="-719.2" font-family="Courier,monospace" font-size="11.00" fill="#000000">EventType</text>
</g>
<!-- \\PHPML\\Enum\\CDataEnum -->
<g id="node5" class="node">
<title>\\PHPML\\Enum\\CDataEnum</title>
<polygon fill="none" stroke="#000000" points="250.2376,-740 173.2376,-740 173.2376,-704 250.2376,-704 250.2376,-740"/>
<text text-anchor="middle" x="211.7376" y="-719.2" font-family="Courier,monospace" font-size="11.00" fill="#000000">CDataEnum</text>
</g>
<!-- \\PHPML\\Enum\\EventType&#45;&gt;\\PHPML\\Enum\\CDataEnum -->
<g id="edge1" class="edge">
<title>\\PHPML\\Enum\\EventType&#45;&gt;\\PHPML\\Enum\\CDataEnum</title>
<path fill="none" stroke="#000000" d="M398.9308,-722C360.7373,-722 302.1057,-722 260.6526,-722"/>
<polygon fill="none" stroke="#000000" points="260.5067,-718.5001 250.5067,-722 260.5066,-725.5001 260.5067,-718.5001"/>
</g>
<!-- Enum -->
<g id="node14" class="node">
<title>Enum</title>
<ellipse fill="none" stroke="#000000" cx="32.4971" cy="-695" rx="32.4942" ry="18"/>
<text text-anchor="middle" x="32.4971" y="-691.3" font-family="Times,serif" font-size="14.00" fill="#000000">Enum</text>
</g>
<!-- \\PHPML\\Enum\\CDataEnum&#45;&gt;Enum -->
<g id="edge3" class="edge">
<title>\\PHPML\\Enum\\CDataEnum&#45;&gt;Enum</title>
<path fill="none" stroke="#000000" d="M172.8451,-716.1414C143.6488,-711.7434 103.7424,-705.7321 73.945,-701.2435"/>
<polygon fill="none" stroke="#000000" points="74.2708,-697.7532 63.861,-699.7245 73.2281,-704.6751 74.2708,-697.7532"/>
</g>
<!-- \\PHPML\\Enum\\KeyCode -->
<g id="node6" class="node">
<title>\\PHPML\\Enum\\KeyCode</title>
<polygon fill="none" stroke="#000000" points="469.481,-686 405.481,-686 405.481,-650 469.481,-650 469.481,-686"/>
<text text-anchor="middle" x="437.481" y="-665.2" font-family="Courier,monospace" font-size="11.00" fill="#000000">KeyCode</text>
</g>
<!-- \\PHPML\\Enum\\KeyCode&#45;&gt;\\PHPML\\Enum\\CDataEnum -->
<g id="edge5" class="edge">
<title>\\PHPML\\Enum\\KeyCode&#45;&gt;\\PHPML\\Enum\\CDataEnum</title>
<path fill="none" stroke="#000000" d="M405.1374,-675.7369C367.2476,-684.8005 304.0959,-699.907 260.312,-710.3805"/>
<polygon fill="none" stroke="#000000" points="259.3654,-707.0082 250.454,-712.7387 260.9939,-713.8161 259.3654,-707.0082"/>
</g>
<!-- \\PHPML\\Enum\\CSFMLType -->
<g id="node7" class="node">
<title>\\PHPML\\Enum\\CSFMLType</title>
<polygon fill="none" stroke="#000000" points="475.981,-632 398.981,-632 398.981,-596 475.981,-596 475.981,-632"/>
<text text-anchor="middle" x="437.481" y="-611.2" font-family="Courier,monospace" font-size="11.00" fill="#000000">CSFMLType</text>
</g>
<!-- \\PHPML\\Enum\\CSFMLType&#45;&gt;Enum -->
<g id="edge8" class="edge">
<title>\\PHPML\\Enum\\CSFMLType&#45;&gt;Enum</title>
<path fill="none" stroke="#000000" d="M398.6494,-621.7666C321.914,-637.1143 151.5221,-671.1941 73.2509,-686.8489"/>
<polygon fill="none" stroke="#000000" points="72.4015,-683.4494 63.2821,-688.8427 73.7744,-690.3135 72.4015,-683.4494"/>
</g>
<!-- \\PHPML\\Enum\\TextStyle -->
<g id="node8" class="node">
<title>\\PHPML\\Enum\\TextStyle</title>
<polygon fill="none" stroke="#000000" points="475.981,-848 398.981,-848 398.981,-812 475.981,-812 475.981,-848"/>
<text text-anchor="middle" x="437.481" y="-827.2" font-family="Courier,monospace" font-size="11.00" fill="#000000">TextStyle</text>
</g>
<!-- \\PHPML\\Enum\\TextStyle&#45;&gt;\\PHPML\\Enum\\CDataEnum -->
<g id="edge9" class="edge">
<title>\\PHPML\\Enum\\TextStyle&#45;&gt;\\PHPML\\Enum\\CDataEnum</title>
<path fill="none" stroke="#000000" d="M398.6793,-820.0102C383.3769,-815.5439 365.8239,-809.754 350.481,-803 313.625,-786.7759 274.2118,-763.0889 246.8479,-745.5168"/>
<polygon fill="none" stroke="#000000" points="248.7004,-742.5466 238.4055,-740.0436 244.8926,-748.4203 248.7004,-742.5466"/>
</g>
<!-- \\PHPML\\Enum\\MouseButton -->
<g id="node9" class="node">
<title>\\PHPML\\Enum\\MouseButton</title>
<polygon fill="none" stroke="#000000" points="482.981,-794 391.981,-794 391.981,-758 482.981,-758 482.981,-794"/>
<text text-anchor="middle" x="437.481" y="-773.2" font-family="Courier,monospace" font-size="11.00" fill="#000000">MouseButton</text>
</g>
<!-- \\PHPML\\Enum\\MouseButton&#45;&gt;\\PHPML\\Enum\\CDataEnum -->
<g id="edge10" class="edge">
<title>\\PHPML\\Enum\\MouseButton&#45;&gt;\\PHPML\\Enum\\CDataEnum</title>
<path fill="none" stroke="#000000" d="M391.7984,-765.0723C353.717,-755.9628 299.5924,-743.0157 260.6409,-733.6982"/>
<polygon fill="none" stroke="#000000" points="261.1243,-730.2151 250.5844,-731.2925 259.4957,-737.023 261.1243,-730.2151"/>
</g>
<!-- \\PHPML\\Exception\\CDataException -->
<g id="node10" class="node">
<title>\\PHPML\\Exception\\CDataException</title>
<polygon fill="none" stroke="#000000" points="492.981,-266 381.981,-266 381.981,-230 492.981,-230 492.981,-266"/>
<text text-anchor="middle" x="437.481" y="-245.2" font-family="Courier,monospace" font-size="11.00" fill="#000000">CDataException</text>
</g>
<!-- Exception -->
<g id="node13" class="node">
<title>Exception</title>
<ellipse fill="none" stroke="#000000" cx="211.7376" cy="-18" rx="46.2923" ry="18"/>
<text text-anchor="middle" x="211.7376" y="-14.3" font-family="Times,serif" font-size="14.00" fill="#000000">Exception</text>
</g>
<!-- \\PHPML\\Exception\\CDataException&#45;&gt;Exception -->
<g id="edge2" class="edge">
<title>\\PHPML\\Exception\\CDataException&#45;&gt;Exception</title>
<path fill="none" stroke="#000000" d="M381.8346,-239.026C370.3828,-235.0419 359.1808,-229.2931 350.481,-221 290.2349,-163.5699 345.3983,-103.7925 286.481,-45 279.8826,-38.4156 271.5611,-33.4261 262.8855,-29.6483"/>
<polygon fill="none" stroke="#000000" points="263.9876,-26.3223 253.3974,-26.0063 261.479,-32.8574 263.9876,-26.3223"/>
</g>
<!-- \\PHPML\\Exception\\RenderWindowException -->
<g id="node11" class="node">
<title>\\PHPML\\Exception\\RenderWindowException</title>
<polygon fill="none" stroke="#000000" points="516.481,-212 358.481,-212 358.481,-176 516.481,-176 516.481,-212"/>
<text text-anchor="middle" x="437.481" y="-191.2" font-family="Courier,monospace" font-size="11.00" fill="#000000">RenderWindowException</text>
</g>
<!-- \\PHPML\\Exception\\RenderWindowException&#45;&gt;Exception -->
<g id="edge4" class="edge">
<title>\\PHPML\\Exception\\RenderWindowException&#45;&gt;Exception</title>
<path fill="none" stroke="#000000" d="M363.5754,-175.8319C358.9141,-173.2663 354.4917,-170.3393 350.481,-167 303.4253,-127.8222 332.6287,-85.2434 286.481,-45 279.3792,-38.8068 270.7469,-33.9964 261.9062,-30.2718"/>
<polygon fill="none" stroke="#000000" points="262.8856,-26.9005 252.2939,-26.6423 260.4128,-33.4492 262.8856,-26.9005"/>
</g>
<!-- \\PHPML\\Exception\\FFILoadingException -->
<g id="node12" class="node">
<title>\\PHPML\\Exception\\FFILoadingException</title>
<polygon fill="none" stroke="#000000" points="509.981,-158 364.981,-158 364.981,-122 509.981,-122 509.981,-158"/>
<text text-anchor="middle" x="437.481" y="-137.2" font-family="Courier,monospace" font-size="11.00" fill="#000000">FFILoadingException</text>
</g>
<!-- \\PHPML\\Exception\\FFILoadingException&#45;&gt;Exception -->
<g id="edge6" class="edge">
<title>\\PHPML\\Exception\\FFILoadingException&#45;&gt;Exception</title>
<path fill="none" stroke="#000000" d="M412.5347,-121.9484C383.3583,-101.4042 333.1012,-67.7569 286.481,-45 277.3679,-40.5516 267.3266,-36.4319 257.6411,-32.8189"/>
<polygon fill="none" stroke="#000000" points="258.7162,-29.4859 248.1218,-29.3813 256.3386,-36.0698 258.7162,-29.4859"/>
</g>
</g>
</svg>
